# xmcd
# Copyright (C) 1995-1998 Ti Kan
#
# Track frame offsets:
#       150
#       18602
#       33454
#       54789
#       69838
#       84087
#       99068
#       118054
#       148996
#       164781
#       179754
#
# Disc length: 2778 seconds
#
# Revision: 0
# Processed by: cddbd v1.5.1PL0 Copyright (c) Steve Scherf et al.
# Submitted via: CD-Transfer v1.0
#
DISCID=900ad80b
DTITLE=Featherlike - Better Times
DYEAR=2005
DGENRE=
TTITLE0=Angel Of Yours
TTITLE1=Peaceful
TTITLE2=Bittersweet Pain
TTITLE3=High Forever
TTITLE4=Better Times
TTITLE5=Everything
TTITLE6=Cosmopolitan Boy
TTITLE7=It's The Sky
TTITLE8=U. F. A.
TTITLE9=Hibernation
TTITLE10=Tonight
EXTD=
EXTT0=
EXTT1=
EXTT2=
EXTT3=
EXTT4=
EXTT5=
EXTT6=
EXTT7=
EXTT8=
EXTT9=
EXTT10=
PLAYORDER=
